<svg height="24" viewBox="0 0 24 24" width="24" xmlns="http://www.w3.org/2000/svg"><path d="m17.7512 3 .18442.00514c1.6480896.09219536 2.9682409 1.41235588 3.0604352 3.06043622l.0051448.18442378v11.5l-.00514.1844c-.09561 1.7091-1.51183 3.0656-3.24486 3.0656h-11.5012c-1.73303 0-3.14925-1.3565-3.24486-3.0656l-.00514-.1844v-11.5c0-1.73303 1.35645-3.14925 3.06558-3.24486l.18442-.00514zm1.7488 5h-14.9988l-.0012 9.75c0 .9182.70711 1.6712 1.60647 1.7442l.14353.0058h11.5012l.14353-.0058c.8493956-.0689444 1.5273089-.7444321 1.600011-1.5927846l.006459-.1514154zm-9.25 1.5c.3796958 0 .693491.28215388.7431534.6482294l.0068466.1017706v7c0 .3796958-.2821539.693491-.6482294.7431534l-.1017706.0068466h-3.5c-.37969577 0-.69349096-.2821539-.74315338-.6482294l-.00684662-.1017706v-7c0-.37969577.28215388-.69349096.64822944-.74315338l.10177056-.00684662zm-.75 1.5h-2v5.5h2zm6.75 1.5029959c.4142136 0 .75.3357864.75.75 0 .3796957-.2821539.6934909-.6482294.7431533l-.1017706.0068467h-3.4955879c-.4142135 0-.75-.3357865-.75-.75 0-.3796958.2821539-.693491.6482295-.7431534l.1017705-.0068466zm1-3.0029959c.4142136 0 .75.33578644.75.75 0 .3796958-.2821539.693491-.6482294.7431534l-.1017706.0068466h-4.4955879c-.4142135 0-.75-.3357864-.75-.75 0-.37969577.2821539-.69349096.6482295-.74315338l.1017705-.00684662z" fill="#212121"/></svg>